<svg xmlns="http://www.w3.org/2000/svg" viewBox="0 0 1600 460" role="img" aria-labelledby="title desc">
<title id="title">Tube2Book logo for dark backgrounds</title>
<desc id="desc">Orange and white Tube2Book logo on a transparent canvas.</desc>
<g id="symbol" transform="translate(28 22)">
<path d="M72 62H285C359 62 407 104 407 169C407 220 379 250 326 283L132 402" fill="none" stroke="#FF7A00" stroke-width="72" stroke-linecap="round" stroke-linejoin="round"/>
<path d="M72 126H218" fill="none" stroke="#FF7A00" stroke-width="42" stroke-linecap="round"/>
<path d="M106 342C171 326 232 338 286 389C340 338 401 326 466 342L454 419C392 402 338 410 286 446C234 410 180 402 118 419Z" fill="#FF7A00"/>
<path d="M125 354C183 343 232 355 277 401L283 425C235 393 187 383 130 394ZM447 354C389 343 340 355 295 401L289 425C337 393 385 383 442 394Z" fill="#FFFFFF"/>
<path d="M278 397L286 442L294 397L286 384Z" fill="#FFFFFF"/>
</g>
<g font-family="Outfit,Arial,Helvetica,sans-serif" font-size="190" font-weight="800">
<text x="540" y="310" fill="#FFFFFF">Tube</text>
<text x="955" y="310" fill="#FF7A00">2Book</text>
</g>
</svg>